<mxfile host="app.diagrams.net" agent="Mozilla/5.0 (Windows NT 10.0; Win64; x64) AppleWebKit/537.36 (KHTML, like Gecko) Chrome/141.0.0.0 Safari/537.36" version="28.2.8">
  <diagram name="Page-1" id="nL0UWif-nL3BjMxQM2AQ">
    <mxGraphModel grid="1" page="1" gridSize="10" guides="1" tooltips="1" connect="1" arrows="1" fold="1" pageScale="1" pageWidth="850" pageHeight="1100" math="0" shadow="0">
      <root>
        <mxCell id="0" />
        <mxCell id="1" parent="0" />
        <mxCell id="T37axCYwCcqpS2ppc57C-1" value="" style="ellipse;html=1;shape=startState;fillColor=#000000;strokeColor=#ff0000;" vertex="1" parent="1">
          <mxGeometry x="405.87" y="61.539999999999964" width="30" height="30" as="geometry" />
        </mxCell>
        <mxCell id="T37axCYwCcqpS2ppc57C-2" value="" style="edgeStyle=orthogonalEdgeStyle;html=1;verticalAlign=bottom;endArrow=open;endSize=8;strokeColor=#ff0000;rounded=0;fontSize=12;curved=1;entryX=0.5;entryY=0;entryDx=0;entryDy=0;" edge="1" parent="1" source="T37axCYwCcqpS2ppc57C-1" target="T37axCYwCcqpS2ppc57C-3">
          <mxGeometry relative="1" as="geometry">
            <mxPoint x="420.87" y="151.53999999999996" as="targetPoint" />
          </mxGeometry>
        </mxCell>
        <mxCell id="T37axCYwCcqpS2ppc57C-3" value="Start timer" style="rounded=1;whiteSpace=wrap;html=1;arcSize=40;fontColor=#000000;fillColor=#ffffc0;strokeColor=#ff0000;" vertex="1" parent="1">
          <mxGeometry x="360.87" y="111.53999999999996" width="120" height="40" as="geometry" />
        </mxCell>
        <mxCell id="T37axCYwCcqpS2ppc57C-4" value="" style="edgeStyle=orthogonalEdgeStyle;html=1;verticalAlign=bottom;endArrow=open;endSize=8;strokeColor=#ff0000;rounded=0;fontSize=12;curved=1;" edge="1" parent="1" source="T37axCYwCcqpS2ppc57C-3">
          <mxGeometry relative="1" as="geometry">
            <mxPoint x="420.87" y="170.53999999999996" as="targetPoint" />
          </mxGeometry>
        </mxCell>
        <mxCell id="T37axCYwCcqpS2ppc57C-5" value="Read for time signal" style="rounded=1;whiteSpace=wrap;html=1;arcSize=40;fontColor=#000000;fillColor=#ffffc0;strokeColor=#ff0000;" vertex="1" parent="1">
          <mxGeometry x="360.87" y="171.53999999999996" width="126" height="42.05128205128205" as="geometry" />
        </mxCell>
        <mxCell id="T37axCYwCcqpS2ppc57C-6" value="" style="edgeStyle=orthogonalEdgeStyle;html=1;verticalAlign=bottom;endArrow=open;endSize=8;strokeColor=#ff0000;rounded=0;entryX=0.5;entryY=0;entryDx=0;entryDy=0;" edge="1" parent="1" source="T37axCYwCcqpS2ppc57C-5" target="T37axCYwCcqpS2ppc57C-7">
          <mxGeometry relative="1" as="geometry">
            <mxPoint x="423.87" y="266.1553846153847" as="targetPoint" />
            <Array as="points">
              <mxPoint x="423.87" y="227.97589743589742" />
            </Array>
          </mxGeometry>
        </mxCell>
        <mxCell id="T37axCYwCcqpS2ppc57C-7" value="Time criteria&amp;nbsp;&lt;div&gt;met?&lt;/div&gt;" style="rhombus;whiteSpace=wrap;html=1;fontColor=#000000;fillColor=#ffffc0;strokeColor=#ff0000;" vertex="1" parent="1">
          <mxGeometry x="376.62" y="228.33538461538456" width="94.5" height="63.07692307692308" as="geometry" />
        </mxCell>
        <mxCell id="T37axCYwCcqpS2ppc57C-8" value="no" style="edgeStyle=orthogonalEdgeStyle;html=1;align=left;verticalAlign=bottom;endArrow=open;endSize=8;strokeColor=#ff0000;rounded=0;entryX=1;entryY=0.5;entryDx=0;entryDy=0;exitX=1;exitY=0.5;exitDx=0;exitDy=0;" edge="1" parent="1" source="T37axCYwCcqpS2ppc57C-7" target="T37axCYwCcqpS2ppc57C-5">
          <mxGeometry x="-1" relative="1" as="geometry">
            <mxPoint x="570.87" y="287.1810256410256" as="targetPoint" />
            <Array as="points">
              <mxPoint x="497.87" y="259.9758974358974" />
              <mxPoint x="497.87" y="192.97589743589742" />
            </Array>
          </mxGeometry>
        </mxCell>
        <mxCell id="T37axCYwCcqpS2ppc57C-9" value="yes" style="edgeStyle=orthogonalEdgeStyle;html=1;align=left;verticalAlign=top;endArrow=open;endSize=8;strokeColor=#ff0000;rounded=0;exitX=0.5;exitY=1;exitDx=0;exitDy=0;entryX=0.5;entryY=0;entryDx=0;entryDy=0;" edge="1" parent="1" source="T37axCYwCcqpS2ppc57C-7" target="T37axCYwCcqpS2ppc57C-10">
          <mxGeometry x="-1" relative="1" as="geometry">
            <mxPoint x="424.87000000000023" y="331.1558974358975" as="targetPoint" />
            <Array as="points">
              <mxPoint x="423.87" y="301.53999999999996" />
              <mxPoint x="423.87" y="301.53999999999996" />
            </Array>
          </mxGeometry>
        </mxCell>
        <mxCell id="T37axCYwCcqpS2ppc57C-10" value="Send update tank request" style="rounded=1;whiteSpace=wrap;html=1;arcSize=40;fontColor=#000000;fillColor=#ffffc0;strokeColor=#ff0000;" vertex="1" parent="1">
          <mxGeometry x="364.62" y="321.53999999999996" width="120" height="40" as="geometry" />
        </mxCell>
        <mxCell id="T37axCYwCcqpS2ppc57C-12" value="" style="edgeStyle=orthogonalEdgeStyle;html=1;verticalAlign=bottom;endArrow=open;endSize=8;strokeColor=#ff0000;rounded=0;entryX=0.474;entryY=0.47;entryDx=0;entryDy=0;exitX=0.5;exitY=1;exitDx=0;exitDy=0;entryPerimeter=0;" edge="1" parent="1" source="T37axCYwCcqpS2ppc57C-10">
          <mxGeometry relative="1" as="geometry">
            <mxPoint x="424.5" y="375.29999999999995" as="targetPoint" />
            <Array as="points">
              <mxPoint x="424.62" y="366.53999999999996" />
              <mxPoint x="424.62" y="366.53999999999996" />
            </Array>
            <mxPoint x="515.87" y="351.53999999999996" as="sourcePoint" />
          </mxGeometry>
        </mxCell>
        <mxCell id="T37axCYwCcqpS2ppc57C-13" value="Send processing signal" style="rounded=1;whiteSpace=wrap;html=1;arcSize=40;fontColor=#000000;fillColor=#ffffc0;strokeColor=#ff0000;" vertex="1" parent="1">
          <mxGeometry x="625.87" y="161.53999999999996" width="120" height="40" as="geometry" />
        </mxCell>
        <mxCell id="T37axCYwCcqpS2ppc57C-14" value="Update tank&amp;nbsp;&lt;div&gt;request high?&lt;/div&gt;" style="rhombus;whiteSpace=wrap;html=1;fontColor=#000000;fillColor=#ffffc0;strokeColor=#ff0000;" vertex="1" parent="1">
          <mxGeometry x="622.92" y="51.539999999999964" width="125.91" height="80" as="geometry" />
        </mxCell>
        <mxCell id="T37axCYwCcqpS2ppc57C-15" value="no" style="edgeStyle=orthogonalEdgeStyle;html=1;align=left;verticalAlign=bottom;endArrow=open;endSize=8;strokeColor=#ff0000;rounded=0;fontSize=12;curved=0;exitX=1;exitY=0.5;exitDx=0;exitDy=0;entryX=0;entryY=0.5;entryDx=0;entryDy=0;" edge="1" parent="1" source="T37axCYwCcqpS2ppc57C-14" target="bX9JsJ9eqzVLUZJ0mOeG-2">
          <mxGeometry x="-0.2711" y="1" relative="1" as="geometry">
            <mxPoint x="732.92" y="41.539999999999964" as="targetPoint" />
            <Array as="points">
              <mxPoint x="749" y="120" />
              <mxPoint x="764" y="120" />
            </Array>
            <mxPoint as="offset" />
          </mxGeometry>
        </mxCell>
        <mxCell id="T37axCYwCcqpS2ppc57C-16" value="yes" style="edgeStyle=orthogonalEdgeStyle;html=1;align=left;verticalAlign=top;endArrow=open;endSize=8;strokeColor=#ff0000;rounded=0;fontSize=12;curved=1;entryX=0.5;entryY=0;entryDx=0;entryDy=0;" edge="1" parent="1" source="T37axCYwCcqpS2ppc57C-14" target="T37axCYwCcqpS2ppc57C-13">
          <mxGeometry x="-1" relative="1" as="geometry">
            <mxPoint x="697.01" y="171.53999999999996" as="targetPoint" />
          </mxGeometry>
        </mxCell>
        <mxCell id="T37axCYwCcqpS2ppc57C-17" value="" style="edgeStyle=orthogonalEdgeStyle;html=1;verticalAlign=bottom;endArrow=open;endSize=8;strokeColor=#ff0000;rounded=0;entryX=0.473;entryY=-0.015;entryDx=0;entryDy=0;entryPerimeter=0;" edge="1" parent="1" target="T37axCYwCcqpS2ppc57C-24">
          <mxGeometry relative="1" as="geometry">
            <mxPoint x="682.7199999999999" y="216.53999999999996" as="targetPoint" />
            <Array as="points">
              <mxPoint x="682.92" y="215.53999999999996" />
              <mxPoint x="682.92" y="215.53999999999996" />
            </Array>
            <mxPoint x="682.7199999999999" y="201.53999999999996" as="sourcePoint" />
          </mxGeometry>
        </mxCell>
        <mxCell id="T37axCYwCcqpS2ppc57C-18" value="Processing&amp;nbsp;&lt;div&gt;signal high?&lt;/div&gt;" style="rhombus;whiteSpace=wrap;html=1;fontColor=#000000;fillColor=#ffffc0;strokeColor=#ff0000;" vertex="1" parent="1">
          <mxGeometry x="455.87" y="379.53999999999996" width="102" height="62" as="geometry" />
        </mxCell>
        <mxCell id="T37axCYwCcqpS2ppc57C-19" value="" style="edgeStyle=orthogonalEdgeStyle;html=1;verticalAlign=bottom;endArrow=open;endSize=8;strokeColor=#ff0000;rounded=0;entryX=0;entryY=0.5;entryDx=0;entryDy=0;exitX=1;exitY=0.5;exitDx=0;exitDy=0;" edge="1" parent="1" source="bX9JsJ9eqzVLUZJ0mOeG-19" target="T37axCYwCcqpS2ppc57C-14">
          <mxGeometry relative="1" as="geometry">
            <mxPoint x="625.87" y="376.53999999999996" as="targetPoint" />
            <Array as="points">
              <mxPoint x="440" y="376" />
              <mxPoint x="496" y="376" />
              <mxPoint x="496" y="272" />
              <mxPoint x="601" y="272" />
              <mxPoint x="601" y="92" />
            </Array>
            <mxPoint x="480.89999999999986" y="375.092" as="sourcePoint" />
          </mxGeometry>
        </mxCell>
        <mxCell id="T37axCYwCcqpS2ppc57C-20" value="no" style="edgeStyle=orthogonalEdgeStyle;html=1;align=left;verticalAlign=bottom;endArrow=open;endSize=8;strokeColor=#ff0000;rounded=0;entryX=1;entryY=0.5;entryDx=0;entryDy=0;exitX=1;exitY=0.5;exitDx=0;exitDy=0;" edge="1" parent="1" source="T37axCYwCcqpS2ppc57C-18" target="bX9JsJ9eqzVLUZJ0mOeG-5">
          <mxGeometry x="-1" relative="1" as="geometry">
            <mxPoint x="601.87" y="342.03" as="targetPoint" />
            <Array as="points">
              <mxPoint x="580" y="411" />
              <mxPoint x="580" y="351" />
            </Array>
            <mxPoint x="585.87" y="409.03" as="sourcePoint" />
          </mxGeometry>
        </mxCell>
        <mxCell id="T37axCYwCcqpS2ppc57C-21" value="yes" style="edgeStyle=orthogonalEdgeStyle;html=1;align=left;verticalAlign=top;endArrow=open;endSize=8;strokeColor=#ff0000;rounded=0;exitX=0.5;exitY=1;exitDx=0;exitDy=0;" edge="1" parent="1">
          <mxGeometry x="-1" relative="1" as="geometry">
            <mxPoint x="506.87" y="471.53999999999996" as="targetPoint" />
            <Array as="points">
              <mxPoint x="506.87" y="461.53999999999996" />
              <mxPoint x="506.87" y="461.53999999999996" />
            </Array>
            <mxPoint x="507.3699999999999" y="441.53999999999974" as="sourcePoint" />
          </mxGeometry>
        </mxCell>
        <mxCell id="T37axCYwCcqpS2ppc57C-22" value="Processing&lt;div&gt;signal low?&lt;/div&gt;" style="rhombus;whiteSpace=wrap;html=1;fontColor=#000000;fillColor=#ffffc0;strokeColor=#ff0000;" vertex="1" parent="1">
          <mxGeometry x="455.87" y="471.53999999999996" width="102" height="62" as="geometry" />
        </mxCell>
        <mxCell id="T37axCYwCcqpS2ppc57C-23" value="no" style="edgeStyle=orthogonalEdgeStyle;html=1;align=left;verticalAlign=bottom;endArrow=open;endSize=8;strokeColor=#ff0000;rounded=0;entryX=1;entryY=0.5;entryDx=0;entryDy=0;exitX=0;exitY=0.5;exitDx=0;exitDy=0;" edge="1" parent="1" source="T37axCYwCcqpS2ppc57C-22" target="bX9JsJ9eqzVLUZJ0mOeG-4">
          <mxGeometry x="-1" relative="1" as="geometry">
            <mxPoint x="545.87" y="479.03999999999996" as="targetPoint" />
            <Array as="points">
              <mxPoint x="450" y="503" />
              <mxPoint x="450" y="523" />
            </Array>
            <mxPoint x="571.37" y="494.53999999999996" as="sourcePoint" />
          </mxGeometry>
        </mxCell>
        <mxCell id="T37axCYwCcqpS2ppc57C-24" value="Read sensor data" style="rounded=1;whiteSpace=wrap;html=1;arcSize=40;fontColor=#000000;fillColor=#ffffc0;strokeColor=#ff0000;" vertex="1" parent="1">
          <mxGeometry x="625.87" y="222.53999999999996" width="120" height="40" as="geometry" />
        </mxCell>
        <mxCell id="T37axCYwCcqpS2ppc57C-25" value="Water below acceptable height?" style="rhombus;whiteSpace=wrap;html=1;fontColor=#000000;fillColor=#ffffc0;strokeColor=#ff0000;" vertex="1" parent="1">
          <mxGeometry x="635.87" y="286.53999999999996" width="80" height="74" as="geometry" />
        </mxCell>
        <mxCell id="T37axCYwCcqpS2ppc57C-26" value="Toggle Warning LED&lt;div&gt;High&lt;/div&gt;" style="rounded=1;whiteSpace=wrap;html=1;arcSize=40;fontColor=#000000;fillColor=#ffffc0;strokeColor=#ff0000;" vertex="1" parent="1">
          <mxGeometry x="615.87" y="382.53999999999996" width="120" height="40" as="geometry" />
        </mxCell>
        <mxCell id="T37axCYwCcqpS2ppc57C-27" value="yes" style="edgeStyle=orthogonalEdgeStyle;html=1;align=left;verticalAlign=top;endArrow=open;endSize=8;strokeColor=#ff0000;rounded=0;entryX=0.5;entryY=0;entryDx=0;entryDy=0;exitX=0.5;exitY=1;exitDx=0;exitDy=0;" edge="1" parent="1" source="T37axCYwCcqpS2ppc57C-25" target="T37axCYwCcqpS2ppc57C-26">
          <mxGeometry x="-1" relative="1" as="geometry">
            <mxPoint x="653.96" y="382.53999999999996" as="targetPoint" />
            <Array as="points">
              <mxPoint x="675.87" y="372.53999999999996" />
              <mxPoint x="675.87" y="372.53999999999996" />
            </Array>
            <mxPoint x="653.96" y="362.53999999999996" as="sourcePoint" />
          </mxGeometry>
        </mxCell>
        <mxCell id="T37axCYwCcqpS2ppc57C-28" value="Send Low tank signal" style="rounded=1;whiteSpace=wrap;html=1;arcSize=40;fontColor=#000000;fillColor=#ffffc0;strokeColor=#ff0000;" vertex="1" parent="1">
          <mxGeometry x="615.87" y="442.53999999999996" width="120" height="40" as="geometry" />
        </mxCell>
        <mxCell id="T37axCYwCcqpS2ppc57C-29" value="Send High tank signal" style="rounded=1;whiteSpace=wrap;html=1;arcSize=40;fontColor=#000000;fillColor=#ffffc0;strokeColor=#ff0000;" vertex="1" parent="1">
          <mxGeometry x="735.87" y="320.53999999999996" width="120" height="40" as="geometry" />
        </mxCell>
        <mxCell id="T37axCYwCcqpS2ppc57C-30" value="" style="edgeStyle=orthogonalEdgeStyle;html=1;verticalAlign=bottom;endArrow=open;endSize=8;strokeColor=#ff0000;rounded=0;entryX=0.5;entryY=0;entryDx=0;entryDy=0;exitX=0.445;exitY=1.02;exitDx=0;exitDy=0;exitPerimeter=0;" edge="1" parent="1" source="T37axCYwCcqpS2ppc57C-24" target="T37axCYwCcqpS2ppc57C-25">
          <mxGeometry relative="1" as="geometry">
            <mxPoint x="776.87" y="327.53999999999996" as="targetPoint" />
            <Array as="points">
              <mxPoint x="675.87" y="263.53999999999996" />
            </Array>
            <mxPoint x="775.87" y="302.53999999999996" as="sourcePoint" />
          </mxGeometry>
        </mxCell>
        <mxCell id="T37axCYwCcqpS2ppc57C-31" value="" style="edgeStyle=orthogonalEdgeStyle;html=1;verticalAlign=bottom;endArrow=open;endSize=8;strokeColor=#ff0000;rounded=0;entryX=0.5;entryY=0;entryDx=0;entryDy=0;exitX=0.5;exitY=1;exitDx=0;exitDy=0;" edge="1" parent="1" source="T37axCYwCcqpS2ppc57C-26" target="T37axCYwCcqpS2ppc57C-28">
          <mxGeometry relative="1" as="geometry">
            <mxPoint x="752.9699999999999" y="454.53999999999996" as="targetPoint" />
            <Array as="points">
              <mxPoint x="675.92" y="431.53999999999996" />
              <mxPoint x="675.92" y="442.53999999999996" />
            </Array>
            <mxPoint x="755.9699999999999" y="431.53999999999996" as="sourcePoint" />
          </mxGeometry>
        </mxCell>
        <mxCell id="T37axCYwCcqpS2ppc57C-32" value="Send Low Processing Signal" style="rounded=1;whiteSpace=wrap;html=1;arcSize=40;fontColor=#000000;fillColor=#ffffc0;strokeColor=#ff0000;" vertex="1" parent="1">
          <mxGeometry x="715.87" y="501.53999999999996" width="120" height="40" as="geometry" />
        </mxCell>
        <mxCell id="T37axCYwCcqpS2ppc57C-33" value="" style="edgeStyle=orthogonalEdgeStyle;html=1;verticalAlign=bottom;endArrow=open;endSize=8;strokeColor=#ff0000;rounded=0;exitX=0.5;exitY=1;exitDx=0;exitDy=0;" edge="1" parent="1" source="T37axCYwCcqpS2ppc57C-28" target="T37axCYwCcqpS2ppc57C-32">
          <mxGeometry relative="1" as="geometry">
            <mxPoint x="662.92" y="531.54" as="targetPoint" />
            <Array as="points">
              <mxPoint x="672.92" y="482.53999999999996" />
              <mxPoint x="672.92" y="521.54" />
            </Array>
            <mxPoint x="662.92" y="511.53999999999996" as="sourcePoint" />
          </mxGeometry>
        </mxCell>
        <mxCell id="T37axCYwCcqpS2ppc57C-34" value="" style="edgeStyle=orthogonalEdgeStyle;html=1;verticalAlign=bottom;endArrow=open;endSize=8;strokeColor=#ff0000;rounded=0;entryX=0.962;entryY=0.509;entryDx=0;entryDy=0;entryPerimeter=0;exitX=0.5;exitY=1;exitDx=0;exitDy=0;" edge="1" parent="1" source="T37axCYwCcqpS2ppc57C-32" target="bX9JsJ9eqzVLUZJ0mOeG-18">
          <mxGeometry relative="1" as="geometry">
            <mxPoint x="524.14375" y="557.3" as="targetPoint" />
            <Array as="points">
              <mxPoint x="778" y="542" />
              <mxPoint x="778" y="570" />
              <mxPoint x="521" y="570" />
            </Array>
            <mxPoint x="717.62" y="557.54" as="sourcePoint" />
          </mxGeometry>
        </mxCell>
        <mxCell id="T37axCYwCcqpS2ppc57C-36" value="Toggle Warning LED&lt;div&gt;high&lt;/div&gt;" style="rounded=1;whiteSpace=wrap;html=1;arcSize=40;fontColor=#000000;fillColor=#ffffc0;strokeColor=#ff0000;" vertex="1" parent="1">
          <mxGeometry x="741.78" y="382.53999999999996" width="120" height="40" as="geometry" />
        </mxCell>
        <mxCell id="T37axCYwCcqpS2ppc57C-37" value="" style="edgeStyle=orthogonalEdgeStyle;html=1;verticalAlign=bottom;endArrow=open;endSize=8;strokeColor=#ff0000;rounded=0;entryX=0.725;entryY=0;entryDx=0;entryDy=0;exitX=0.45;exitY=1.034;exitDx=0;exitDy=0;entryPerimeter=0;exitPerimeter=0;" edge="1" parent="1" source="T37axCYwCcqpS2ppc57C-36" target="T37axCYwCcqpS2ppc57C-32">
          <mxGeometry relative="1" as="geometry">
            <mxPoint x="802.92" y="461.53999999999996" as="targetPoint" />
            <Array as="points">
              <mxPoint x="802.92" y="450.53999999999996" />
              <mxPoint x="802.92" y="450.53999999999996" />
            </Array>
            <mxPoint x="802.92" y="441.53999999999996" as="sourcePoint" />
          </mxGeometry>
        </mxCell>
        <mxCell id="T37axCYwCcqpS2ppc57C-38" value="" style="edgeStyle=orthogonalEdgeStyle;html=1;verticalAlign=bottom;endArrow=open;endSize=8;strokeColor=#ff0000;rounded=0;entryX=0.367;entryY=-0.002;entryDx=0;entryDy=0;exitX=0.416;exitY=1.007;exitDx=0;exitDy=0;exitPerimeter=0;entryPerimeter=0;" edge="1" parent="1" source="T37axCYwCcqpS2ppc57C-29" target="T37axCYwCcqpS2ppc57C-36">
          <mxGeometry relative="1" as="geometry">
            <mxPoint x="785.87" y="381.53999999999996" as="targetPoint" />
            <Array as="points">
              <mxPoint x="785.87" y="370.53999999999996" />
              <mxPoint x="785.87" y="370.53999999999996" />
            </Array>
            <mxPoint x="785.87" y="361.53999999999996" as="sourcePoint" />
          </mxGeometry>
        </mxCell>
        <mxCell id="T37axCYwCcqpS2ppc57C-39" value="" style="endArrow=none;dashed=1;html=1;dashPattern=1 3;strokeWidth=2;rounded=0;entryX=0;entryY=0;entryDx=0;entryDy=0;" edge="1" parent="1" target="T37axCYwCcqpS2ppc57C-40">
          <mxGeometry width="50" height="50" relative="1" as="geometry">
            <mxPoint x="600.87" y="1101.54" as="sourcePoint" />
            <mxPoint x="592.86" y="11.539999999999964" as="targetPoint" />
          </mxGeometry>
        </mxCell>
        <mxCell id="T37axCYwCcqpS2ppc57C-40" value="Internal Resevior subsystem" style="text;html=1;whiteSpace=wrap;strokeColor=none;fillColor=none;align=center;verticalAlign=middle;rounded=0;fontSize=16;" vertex="1" parent="1">
          <mxGeometry x="593.61" y="21.539999999999964" width="215" height="30" as="geometry" />
        </mxCell>
        <mxCell id="T37axCYwCcqpS2ppc57C-41" value="" style="edgeStyle=orthogonalEdgeStyle;html=1;verticalAlign=bottom;endArrow=open;endSize=8;strokeColor=#ff0000;rounded=0;entryX=0;entryY=0.5;entryDx=0;entryDy=0;exitX=0.458;exitY=0.971;exitDx=0;exitDy=0;exitPerimeter=0;" edge="1" parent="1" source="bX9JsJ9eqzVLUZJ0mOeG-19" target="T37axCYwCcqpS2ppc57C-18">
          <mxGeometry relative="1" as="geometry">
            <mxPoint x="375.87" y="415.53999999999996" as="targetPoint" />
            <Array as="points">
              <mxPoint x="425" y="398" />
              <mxPoint x="425" y="411" />
            </Array>
            <mxPoint x="420" y="390" as="sourcePoint" />
          </mxGeometry>
        </mxCell>
        <mxCell id="T37axCYwCcqpS2ppc57C-42" value="" style="edgeStyle=orthogonalEdgeStyle;html=1;verticalAlign=bottom;endArrow=open;endSize=8;strokeColor=#ff0000;rounded=0;exitX=0.5;exitY=1;exitDx=0;exitDy=0;entryX=0.885;entryY=0.594;entryDx=0;entryDy=0;entryPerimeter=0;" edge="1" parent="1" source="T37axCYwCcqpS2ppc57C-22">
          <mxGeometry relative="1" as="geometry">
            <mxPoint x="506.36374999999975" y="558.292" as="targetPoint" />
            <Array as="points">
              <mxPoint x="506.87" y="558.54" />
            </Array>
            <mxPoint x="415.87" y="511.53999999999996" as="sourcePoint" />
          </mxGeometry>
        </mxCell>
        <mxCell id="T37axCYwCcqpS2ppc57C-43" value="" style="endArrow=none;dashed=1;html=1;dashPattern=1 3;strokeWidth=2;rounded=0;" edge="1" parent="1">
          <mxGeometry width="50" height="50" relative="1" as="geometry">
            <mxPoint x="320.87" y="1101.54" as="sourcePoint" />
            <mxPoint x="320.62" y="21.539999999999964" as="targetPoint" />
          </mxGeometry>
        </mxCell>
        <mxCell id="T37axCYwCcqpS2ppc57C-44" value="Main Logic" style="text;html=1;whiteSpace=wrap;strokeColor=none;fillColor=none;align=center;verticalAlign=middle;rounded=0;fontSize=16;" vertex="1" parent="1">
          <mxGeometry x="329.12" y="21.539999999999964" width="215" height="30" as="geometry" />
        </mxCell>
        <mxCell id="T37axCYwCcqpS2ppc57C-45" value="new update signal?" style="rhombus;whiteSpace=wrap;html=1;fontColor=#000000;fillColor=#ffffc0;strokeColor=#ff0000;" vertex="1" parent="1">
          <mxGeometry x="156.62" y="40.899487179487096" width="94.5" height="63.07692307692308" as="geometry" />
        </mxCell>
        <mxCell id="T37axCYwCcqpS2ppc57C-46" value="no" style="edgeStyle=orthogonalEdgeStyle;html=1;align=left;verticalAlign=bottom;endArrow=open;endSize=8;strokeColor=#ff0000;rounded=0;exitX=1;exitY=0.5;exitDx=0;exitDy=0;" edge="1" parent="1" source="T37axCYwCcqpS2ppc57C-45" target="T37axCYwCcqpS2ppc57C-45">
          <mxGeometry x="-1" relative="1" as="geometry">
            <mxPoint x="266.87" y="5.129743589743612" as="targetPoint" />
            <Array as="points">
              <mxPoint x="277.87" y="72.53999999999996" />
              <mxPoint x="277.87" y="21.539999999999964" />
              <mxPoint x="203.87" y="21.539999999999964" />
            </Array>
          </mxGeometry>
        </mxCell>
        <mxCell id="T37axCYwCcqpS2ppc57C-47" value="yes" style="edgeStyle=orthogonalEdgeStyle;html=1;align=left;verticalAlign=top;endArrow=open;endSize=8;strokeColor=#ff0000;rounded=0;exitX=0.5;exitY=1;exitDx=0;exitDy=0;entryX=0.5;entryY=0;entryDx=0;entryDy=0;" edge="1" parent="1" source="T37axCYwCcqpS2ppc57C-45" target="T37axCYwCcqpS2ppc57C-62">
          <mxGeometry x="-1" relative="1" as="geometry">
            <mxPoint x="210.87" y="143.72000000000003" as="targetPoint" />
            <Array as="points">
              <mxPoint x="204.87" y="103.53999999999996" />
            </Array>
          </mxGeometry>
        </mxCell>
        <mxCell id="T37axCYwCcqpS2ppc57C-48" value="Start forward movement in motor." style="rounded=1;whiteSpace=wrap;html=1;arcSize=40;fontColor=#000000;fillColor=#ffffc0;strokeColor=#ff0000;" vertex="1" parent="1">
          <mxGeometry x="141.87" y="213.71769230769223" width="126" height="42.05128205128205" as="geometry" />
        </mxCell>
        <mxCell id="T37axCYwCcqpS2ppc57C-49" value="limit switch 1 updated" style="rhombus;whiteSpace=wrap;html=1;fontColor=#000000;fillColor=#ffffc0;strokeColor=#ff0000;" vertex="1" parent="1">
          <mxGeometry x="157.62" y="287.3074358974359" width="94.5" height="63.07692307692308" as="geometry" />
        </mxCell>
        <mxCell id="T37axCYwCcqpS2ppc57C-50" value="" style="edgeStyle=orthogonalEdgeStyle;html=1;align=left;verticalAlign=top;endArrow=open;endSize=8;strokeColor=#ff0000;rounded=0;entryX=0.5;entryY=0;entryDx=0;entryDy=0;exitX=0.5;exitY=1;exitDx=0;exitDy=0;" edge="1" parent="1" source="T37axCYwCcqpS2ppc57C-48" target="T37axCYwCcqpS2ppc57C-49">
          <mxGeometry x="-1" relative="1" as="geometry">
            <mxPoint x="220.62" y="318.8458974358973" as="targetPoint" />
            <mxPoint x="220.62" y="276.7946153846153" as="sourcePoint" />
            <Array as="points">
              <mxPoint x="204.87" y="266.2817948717948" />
              <mxPoint x="204.87" y="266.2817948717948" />
            </Array>
          </mxGeometry>
        </mxCell>
        <mxCell id="T37axCYwCcqpS2ppc57C-51" value="no" style="edgeStyle=orthogonalEdgeStyle;html=1;align=left;verticalAlign=top;endArrow=open;endSize=8;strokeColor=#ff0000;rounded=0;exitX=1;exitY=0.5;exitDx=0;exitDy=0;entryX=0.875;entryY=1;entryDx=0;entryDy=0;entryPerimeter=0;" edge="1" parent="1" source="T37axCYwCcqpS2ppc57C-49" target="T37axCYwCcqpS2ppc57C-48">
          <mxGeometry x="0.4286" relative="1" as="geometry">
            <mxPoint x="273.12" y="318.8458974358973" as="targetPoint" />
            <mxPoint x="241.62" y="297.82025641025643" as="sourcePoint" />
            <Array as="points">
              <mxPoint x="252.12" y="266.2817948717948" />
              <mxPoint x="252.12" y="266.2817948717948" />
            </Array>
            <mxPoint as="offset" />
          </mxGeometry>
        </mxCell>
        <mxCell id="T37axCYwCcqpS2ppc57C-52" value="yes" style="edgeStyle=orthogonalEdgeStyle;html=1;align=left;verticalAlign=top;endArrow=open;endSize=8;strokeColor=#ff0000;rounded=0;exitX=0.5;exitY=1;exitDx=0;exitDy=0;entryX=0.5;entryY=0;entryDx=0;entryDy=0;" edge="1" parent="1" source="T37axCYwCcqpS2ppc57C-49" target="T37axCYwCcqpS2ppc57C-53">
          <mxGeometry x="-1" relative="1" as="geometry">
            <mxPoint x="204.87" y="392.43564102564096" as="targetPoint" />
            <mxPoint x="210.12" y="350.384358974359" as="sourcePoint" />
            <Array as="points" />
          </mxGeometry>
        </mxCell>
        <mxCell id="T37axCYwCcqpS2ppc57C-53" value="Stop Motor" style="rounded=1;whiteSpace=wrap;html=1;arcSize=40;fontColor=#000000;fillColor=#ffffc0;strokeColor=#ff0000;" vertex="1" parent="1">
          <mxGeometry x="141.87" y="383.71564102564093" width="126" height="42.05128205128205" as="geometry" />
        </mxCell>
        <mxCell id="T37axCYwCcqpS2ppc57C-54" value="" style="edgeStyle=orthogonalEdgeStyle;html=1;verticalAlign=bottom;endArrow=open;endSize=8;strokeColor=#ff0000;rounded=0;entryX=0.5;entryY=0;entryDx=0;entryDy=0;" edge="1" parent="1" source="T37axCYwCcqpS2ppc57C-53" target="T37axCYwCcqpS2ppc57C-55">
          <mxGeometry relative="1" as="geometry">
            <mxPoint x="204.87" y="488.84384615384624" as="targetPoint" />
          </mxGeometry>
        </mxCell>
        <mxCell id="T37axCYwCcqpS2ppc57C-55" value="Read moisture sensor signal" style="rounded=1;whiteSpace=wrap;html=1;arcSize=40;fontColor=#000000;fillColor=#ffffc0;strokeColor=#ff0000;" vertex="1" parent="1">
          <mxGeometry x="141.87" y="444.998205128205" width="126" height="42.05128205128205" as="geometry" />
        </mxCell>
        <mxCell id="T37axCYwCcqpS2ppc57C-56" value="send analog signal" style="rounded=1;whiteSpace=wrap;html=1;arcSize=40;fontColor=#000000;fillColor=#ffffc0;strokeColor=#ff0000;" vertex="1" parent="1">
          <mxGeometry x="141.87" y="511.4879487179487" width="126" height="42.05128205128205" as="geometry" />
        </mxCell>
        <mxCell id="T37axCYwCcqpS2ppc57C-57" value="Read update signal" style="rounded=1;whiteSpace=wrap;html=1;arcSize=40;fontColor=#000000;fillColor=#ffffc0;strokeColor=#ff0000;" vertex="1" parent="1">
          <mxGeometry x="119.12" y="661.5376923076924" width="126" height="42.05128205128205" as="geometry" />
        </mxCell>
        <mxCell id="T37axCYwCcqpS2ppc57C-58" value="is signal low?" style="rhombus;whiteSpace=wrap;html=1;fontColor=#000000;fillColor=#ffffc0;strokeColor=#ff0000;" vertex="1" parent="1">
          <mxGeometry x="134.87" y="722.184615384615" width="94.5" height="63.07692307692308" as="geometry" />
        </mxCell>
        <mxCell id="T37axCYwCcqpS2ppc57C-59" value="no" style="edgeStyle=orthogonalEdgeStyle;html=1;align=left;verticalAlign=top;endArrow=open;endSize=8;strokeColor=#ff0000;rounded=0;exitX=0;exitY=0.5;exitDx=0;exitDy=0;entryX=0.103;entryY=1.067;entryDx=0;entryDy=0;entryPerimeter=0;" edge="1" parent="1" source="T37axCYwCcqpS2ppc57C-58" target="T37axCYwCcqpS2ppc57C-57">
          <mxGeometry x="0.8435" relative="1" as="geometry">
            <mxPoint x="134.87" y="798.331538461538" as="targetPoint" />
            <mxPoint x="134.87" y="861.4084615384613" as="sourcePoint" />
            <Array as="points">
              <mxPoint x="135.12" y="752.1799999999998" />
              <mxPoint x="132.12" y="752.1799999999998" />
            </Array>
            <mxPoint as="offset" />
          </mxGeometry>
        </mxCell>
        <mxCell id="T37axCYwCcqpS2ppc57C-60" value="" style="edgeStyle=orthogonalEdgeStyle;html=1;verticalAlign=bottom;endArrow=open;endSize=8;strokeColor=#ff0000;rounded=0;entryX=0.5;entryY=0;entryDx=0;entryDy=0;exitX=0.5;exitY=1;exitDx=0;exitDy=0;" edge="1" parent="1" source="T37axCYwCcqpS2ppc57C-55" target="T37axCYwCcqpS2ppc57C-56">
          <mxGeometry relative="1" as="geometry">
            <mxPoint x="346.62" y="560.6392307692306" as="targetPoint" />
            <mxPoint x="346.62" y="518.5879487179486" as="sourcePoint" />
          </mxGeometry>
        </mxCell>
        <mxCell id="T37axCYwCcqpS2ppc57C-61" value="Moisture sensor" style="text;html=1;whiteSpace=wrap;strokeColor=none;fillColor=none;align=center;verticalAlign=middle;rounded=0;" vertex="1" parent="1">
          <mxGeometry x="30" y="20" width="183.25" height="31.54" as="geometry" />
        </mxCell>
        <mxCell id="T37axCYwCcqpS2ppc57C-62" value="Send Processing B Signal" style="rounded=1;whiteSpace=wrap;html=1;arcSize=40;fontColor=#000000;fillColor=#ffffc0;strokeColor=#ff0000;" vertex="1" parent="1">
          <mxGeometry x="141.87" y="143.72000000000003" width="126" height="42.05128205128205" as="geometry" />
        </mxCell>
        <mxCell id="T37axCYwCcqpS2ppc57C-63" value="" style="edgeStyle=orthogonalEdgeStyle;html=1;align=left;verticalAlign=top;endArrow=open;endSize=8;strokeColor=#ff0000;rounded=0;exitX=0.5;exitY=1;exitDx=0;exitDy=0;" edge="1" parent="1">
          <mxGeometry x="-1" relative="1" as="geometry">
            <mxPoint x="200.87" y="211.53999999999996" as="targetPoint" />
            <mxPoint x="200.87" y="185.76999999999998" as="sourcePoint" />
            <Array as="points" />
          </mxGeometry>
        </mxCell>
        <mxCell id="T37axCYwCcqpS2ppc57C-64" value="Set Processing High" style="rounded=1;whiteSpace=wrap;html=1;arcSize=40;fontColor=#000000;fillColor=#ffffc0;strokeColor=#ff0000;" vertex="1" parent="1">
          <mxGeometry x="119.12" y="809.1099999999997" width="126" height="42.05128205128205" as="geometry" />
        </mxCell>
        <mxCell id="T37axCYwCcqpS2ppc57C-65" value="Start reverse movement on motor" style="rounded=1;whiteSpace=wrap;html=1;arcSize=40;fontColor=#000000;fillColor=#ffffc0;strokeColor=#ff0000;" vertex="1" parent="1">
          <mxGeometry x="118.12" y="879.1099999999997" width="126" height="42.05128205128205" as="geometry" />
        </mxCell>
        <mxCell id="T37axCYwCcqpS2ppc57C-66" value="limit switch 2 updated" style="rhombus;whiteSpace=wrap;html=1;fontColor=#000000;fillColor=#ffffc0;strokeColor=#ff0000;" vertex="1" parent="1">
          <mxGeometry x="133.87" y="949.1097435897436" width="94.5" height="63.07692307692308" as="geometry" />
        </mxCell>
        <mxCell id="T37axCYwCcqpS2ppc57C-67" value="" style="edgeStyle=orthogonalEdgeStyle;html=1;align=left;verticalAlign=top;endArrow=open;endSize=8;strokeColor=#ff0000;rounded=0;entryX=0.5;entryY=0;entryDx=0;entryDy=0;exitX=0.5;exitY=1;exitDx=0;exitDy=0;" edge="1" parent="1" source="T37axCYwCcqpS2ppc57C-65" target="T37axCYwCcqpS2ppc57C-66">
          <mxGeometry x="-1" relative="1" as="geometry">
            <mxPoint x="196.87" y="994.2382051282052" as="targetPoint" />
            <mxPoint x="196.87" y="952.186923076923" as="sourcePoint" />
            <Array as="points">
              <mxPoint x="181.12" y="941.6741025641022" />
              <mxPoint x="181.12" y="941.6741025641022" />
            </Array>
          </mxGeometry>
        </mxCell>
        <mxCell id="T37axCYwCcqpS2ppc57C-68" value="no" style="edgeStyle=orthogonalEdgeStyle;html=1;align=left;verticalAlign=top;endArrow=open;endSize=8;strokeColor=#ff0000;rounded=0;exitX=1;exitY=0.5;exitDx=0;exitDy=0;entryX=0.875;entryY=1;entryDx=0;entryDy=0;entryPerimeter=0;" edge="1" parent="1" source="T37axCYwCcqpS2ppc57C-66" target="T37axCYwCcqpS2ppc57C-65">
          <mxGeometry x="0.4286" relative="1" as="geometry">
            <mxPoint x="249.37" y="994.2382051282052" as="targetPoint" />
            <mxPoint x="217.87" y="973.2125641025641" as="sourcePoint" />
            <Array as="points">
              <mxPoint x="228.37" y="941.6741025641022" />
              <mxPoint x="228.37" y="941.6741025641022" />
            </Array>
            <mxPoint as="offset" />
          </mxGeometry>
        </mxCell>
        <mxCell id="T37axCYwCcqpS2ppc57C-69" value="" style="edgeStyle=orthogonalEdgeStyle;html=1;align=left;verticalAlign=top;endArrow=open;endSize=8;strokeColor=#ff0000;rounded=0;entryX=0.5;entryY=0;entryDx=0;entryDy=0;exitX=0.5;exitY=1;exitDx=0;exitDy=0;" edge="1" parent="1" source="T37axCYwCcqpS2ppc57C-64" target="T37axCYwCcqpS2ppc57C-65">
          <mxGeometry x="-1" relative="1" as="geometry">
            <mxPoint x="188.12" y="901.1099999999997" as="targetPoint" />
            <mxPoint x="188.12" y="869.1099999999997" as="sourcePoint" />
            <Array as="points">
              <mxPoint x="181.12" y="851.1099999999997" />
            </Array>
          </mxGeometry>
        </mxCell>
        <mxCell id="T37axCYwCcqpS2ppc57C-70" value="yes" style="edgeStyle=orthogonalEdgeStyle;html=1;align=left;verticalAlign=top;endArrow=open;endSize=8;strokeColor=#ff0000;rounded=0;exitX=1;exitY=0.5;exitDx=0;exitDy=0;entryX=0;entryY=0.5;entryDx=0;entryDy=0;" edge="1" parent="1" source="T37axCYwCcqpS2ppc57C-66" target="T37axCYwCcqpS2ppc57C-71">
          <mxGeometry x="-1" y="-8" relative="1" as="geometry">
            <mxPoint x="458.12" y="949.1100000000001" as="targetPoint" />
            <mxPoint x="458.12" y="1009.1100000000001" as="sourcePoint" />
            <Array as="points">
              <mxPoint x="248.12" y="981.1100000000001" />
              <mxPoint x="248.12" y="997.1100000000001" />
            </Array>
            <mxPoint as="offset" />
          </mxGeometry>
        </mxCell>
        <mxCell id="T37axCYwCcqpS2ppc57C-71" value="" style="ellipse;html=1;shape=endState;fillColor=#000000;strokeColor=#ff0000;rotation=45;" vertex="1" parent="1">
          <mxGeometry x="252.12" y="1017.19" width="30" height="30" as="geometry" />
        </mxCell>
        <mxCell id="T37axCYwCcqpS2ppc57C-72" value="yes" style="edgeStyle=orthogonalEdgeStyle;html=1;align=left;verticalAlign=top;endArrow=open;endSize=8;strokeColor=#ff0000;rounded=0;exitX=0.5;exitY=1;exitDx=0;exitDy=0;entryX=0.5;entryY=0;entryDx=0;entryDy=0;" edge="1" parent="1" source="T37axCYwCcqpS2ppc57C-58" target="T37axCYwCcqpS2ppc57C-64">
          <mxGeometry x="-1" y="9" relative="1" as="geometry">
            <mxPoint x="238.12" y="795.1099999999997" as="targetPoint" />
            <mxPoint x="208.12" y="779.1099999999997" as="sourcePoint" />
            <Array as="points">
              <mxPoint x="182.12" y="795.1099999999997" />
              <mxPoint x="182.12" y="795.1099999999997" />
            </Array>
            <mxPoint x="-3" y="-6" as="offset" />
          </mxGeometry>
        </mxCell>
        <mxCell id="T37axCYwCcqpS2ppc57C-73" value="" style="edgeStyle=orthogonalEdgeStyle;html=1;verticalAlign=bottom;endArrow=open;endSize=8;strokeColor=#ff0000;rounded=0;entryX=0.5;entryY=0;entryDx=0;entryDy=0;exitX=0.5;exitY=1;exitDx=0;exitDy=0;" edge="1" parent="1" source="T37axCYwCcqpS2ppc57C-57" target="T37axCYwCcqpS2ppc57C-58">
          <mxGeometry relative="1" as="geometry">
            <mxPoint x="207.12" y="743.54" as="targetPoint" />
            <mxPoint x="207.12" y="711.54" as="sourcePoint" />
          </mxGeometry>
        </mxCell>
        <mxCell id="T37axCYwCcqpS2ppc57C-74" value="Send update moisture request" style="rounded=1;whiteSpace=wrap;html=1;arcSize=40;fontColor=#000000;fillColor=#ffffc0;strokeColor=#ff0000;" vertex="1" parent="1">
          <mxGeometry x="348.62" y="711.54" width="120" height="40" as="geometry" />
        </mxCell>
        <mxCell id="T37axCYwCcqpS2ppc57C-76" value="" style="edgeStyle=orthogonalEdgeStyle;html=1;verticalAlign=bottom;endArrow=open;endSize=8;strokeColor=#ff0000;rounded=0;exitX=0.5;exitY=1;exitDx=0;exitDy=0;entryX=0.5;entryY=0;entryDx=0;entryDy=0;" edge="1" parent="1" source="T37axCYwCcqpS2ppc57C-74" target="bX9JsJ9eqzVLUZJ0mOeG-16">
          <mxGeometry relative="1" as="geometry">
            <mxPoint x="409" y="766" as="targetPoint" />
            <Array as="points" />
            <mxPoint x="499.87" y="741.54" as="sourcePoint" />
          </mxGeometry>
        </mxCell>
        <mxCell id="T37axCYwCcqpS2ppc57C-77" value="Processing B&lt;div&gt;signal high?&lt;/div&gt;" style="rhombus;whiteSpace=wrap;html=1;fontColor=#000000;fillColor=#ffffc0;strokeColor=#ff0000;" vertex="1" parent="1">
          <mxGeometry x="439.87" y="769.54" width="102" height="62" as="geometry" />
        </mxCell>
        <mxCell id="T37axCYwCcqpS2ppc57C-78" value="yes" style="edgeStyle=orthogonalEdgeStyle;html=1;align=left;verticalAlign=top;endArrow=open;endSize=8;strokeColor=#ff0000;rounded=0;exitX=0.5;exitY=1;exitDx=0;exitDy=0;" edge="1" parent="1">
          <mxGeometry x="-1" relative="1" as="geometry">
            <mxPoint x="490.87" y="861.54" as="targetPoint" />
            <Array as="points">
              <mxPoint x="490.87" y="851.54" />
              <mxPoint x="490.87" y="851.54" />
            </Array>
            <mxPoint x="491.3699999999999" y="831.5399999999997" as="sourcePoint" />
          </mxGeometry>
        </mxCell>
        <mxCell id="T37axCYwCcqpS2ppc57C-79" value="Processing B&lt;div&gt;signal low?&lt;/div&gt;" style="rhombus;whiteSpace=wrap;html=1;fontColor=#000000;fillColor=#ffffc0;strokeColor=#ff0000;" vertex="1" parent="1">
          <mxGeometry x="439.87" y="861.54" width="102" height="62" as="geometry" />
        </mxCell>
        <mxCell id="T37axCYwCcqpS2ppc57C-80" value="no" style="edgeStyle=orthogonalEdgeStyle;html=1;align=left;verticalAlign=bottom;endArrow=open;endSize=8;strokeColor=#ff0000;rounded=0;entryX=1;entryY=0.5;entryDx=0;entryDy=0;exitX=0;exitY=0.5;exitDx=0;exitDy=0;" edge="1" parent="1" source="T37axCYwCcqpS2ppc57C-79" target="bX9JsJ9eqzVLUZJ0mOeG-7">
          <mxGeometry x="0.5268" relative="1" as="geometry">
            <mxPoint x="529.87" y="869.04" as="targetPoint" />
            <Array as="points">
              <mxPoint x="440" y="902" />
            </Array>
            <mxPoint x="555.37" y="884.54" as="sourcePoint" />
            <mxPoint as="offset" />
          </mxGeometry>
        </mxCell>
        <mxCell id="T37axCYwCcqpS2ppc57C-82" value="" style="edgeStyle=orthogonalEdgeStyle;html=1;verticalAlign=bottom;endArrow=open;endSize=8;strokeColor=#ff0000;rounded=0;entryX=0;entryY=0.5;entryDx=0;entryDy=0;exitX=0.5;exitY=1;exitDx=0;exitDy=0;" edge="1" parent="1" source="bX9JsJ9eqzVLUZJ0mOeG-16" target="T37axCYwCcqpS2ppc57C-77">
          <mxGeometry relative="1" as="geometry">
            <mxPoint x="359.87" y="805.54" as="targetPoint" />
            <Array as="points">
              <mxPoint x="409" y="800" />
              <mxPoint x="420" y="800" />
            </Array>
            <mxPoint x="400" y="790" as="sourcePoint" />
          </mxGeometry>
        </mxCell>
        <mxCell id="T37axCYwCcqpS2ppc57C-83" value="" style="edgeStyle=orthogonalEdgeStyle;html=1;verticalAlign=bottom;endArrow=open;endSize=8;strokeColor=#ff0000;rounded=0;exitX=0.5;exitY=1;exitDx=0;exitDy=0;entryX=1;entryY=0;entryDx=0;entryDy=0;" edge="1" parent="1" source="T37axCYwCcqpS2ppc57C-79" target="bX9JsJ9eqzVLUZJ0mOeG-15">
          <mxGeometry relative="1" as="geometry">
            <mxPoint x="490.36375" y="948.2919999999999" as="targetPoint" />
            <Array as="points">
              <mxPoint x="491" y="930" />
              <mxPoint x="434" y="930" />
            </Array>
            <mxPoint x="399.87" y="901.54" as="sourcePoint" />
          </mxGeometry>
        </mxCell>
        <mxCell id="T37axCYwCcqpS2ppc57C-84" value="read tank request" style="rounded=1;whiteSpace=wrap;html=1;arcSize=40;fontColor=#000000;fillColor=#ffffc0;strokeColor=#ff0000;" vertex="1" parent="1">
          <mxGeometry x="352.12" y="581.54" width="120" height="40" as="geometry" />
        </mxCell>
        <mxCell id="T37axCYwCcqpS2ppc57C-85" value="" style="edgeStyle=orthogonalEdgeStyle;html=1;verticalAlign=bottom;endArrow=open;endSize=8;strokeColor=#ff0000;rounded=0;entryX=0.5;entryY=0;entryDx=0;entryDy=0;exitX=0.5;exitY=1;exitDx=0;exitDy=0;" edge="1" parent="1" source="T37axCYwCcqpS2ppc57C-84" target="T37axCYwCcqpS2ppc57C-94">
          <mxGeometry relative="1" as="geometry">
            <mxPoint x="530.86" y="697.1800000000001" as="targetPoint" />
            <Array as="points">
              <mxPoint x="410.87" y="621.54" />
              <mxPoint x="410.87" y="639.54" />
            </Array>
            <mxPoint x="530.86" y="682.1800000000001" as="sourcePoint" />
          </mxGeometry>
        </mxCell>
        <mxCell id="T37axCYwCcqpS2ppc57C-86" value="" style="edgeStyle=orthogonalEdgeStyle;html=1;verticalAlign=bottom;endArrow=open;endSize=8;strokeColor=#ff0000;rounded=0;entryX=0.623;entryY=0.008;entryDx=0;entryDy=0;exitX=0;exitY=0.5;exitDx=0;exitDy=0;entryPerimeter=0;" edge="1" parent="1" source="bX9JsJ9eqzVLUZJ0mOeG-18" target="T37axCYwCcqpS2ppc57C-84">
          <mxGeometry relative="1" as="geometry">
            <mxPoint x="500.87" y="586.54" as="targetPoint" />
            <Array as="points">
              <mxPoint x="427" y="569" />
            </Array>
            <mxPoint x="427.1474999999998" y="558.396" as="sourcePoint" />
          </mxGeometry>
        </mxCell>
        <mxCell id="T37axCYwCcqpS2ppc57C-87" value="Processing signal low" style="rounded=1;whiteSpace=wrap;html=1;arcSize=40;fontColor=#000000;fillColor=#ffffc0;strokeColor=#ff0000;" vertex="1" parent="1">
          <mxGeometry x="142.87" y="579.49" width="126" height="42.05128205128205" as="geometry" />
        </mxCell>
        <mxCell id="T37axCYwCcqpS2ppc57C-88" value="" style="edgeStyle=orthogonalEdgeStyle;html=1;verticalAlign=bottom;endArrow=open;endSize=8;strokeColor=#ff0000;rounded=0;entryX=0.5;entryY=0;entryDx=0;entryDy=0;exitX=0.5;exitY=1;exitDx=0;exitDy=0;" edge="1" parent="1" source="T37axCYwCcqpS2ppc57C-56" target="T37axCYwCcqpS2ppc57C-87">
          <mxGeometry relative="1" as="geometry">
            <mxPoint x="270.87" y="532.54" as="targetPoint" />
            <mxPoint x="270.87" y="501.53999999999996" as="sourcePoint" />
          </mxGeometry>
        </mxCell>
        <mxCell id="T37axCYwCcqpS2ppc57C-89" value="" style="edgeStyle=orthogonalEdgeStyle;html=1;verticalAlign=bottom;endArrow=open;endSize=8;strokeColor=#ff0000;rounded=0;exitX=0.022;exitY=0.635;exitDx=0;exitDy=0;exitPerimeter=0;entryX=0;entryY=0.25;entryDx=0;entryDy=0;" edge="1" parent="1" source="T37axCYwCcqpS2ppc57C-90" target="T37axCYwCcqpS2ppc57C-57">
          <mxGeometry relative="1" as="geometry">
            <mxPoint x="120.87" y="241.53999999999996" as="targetPoint" />
            <mxPoint x="200.87" y="651.54" as="sourcePoint" />
            <Array as="points">
              <mxPoint x="145.87" y="645.54" />
              <mxPoint x="118.87" y="645.54" />
            </Array>
          </mxGeometry>
        </mxCell>
        <mxCell id="T37axCYwCcqpS2ppc57C-90" value="" style="line;strokeWidth=1;fillColor=none;align=left;verticalAlign=middle;spacingTop=-1;spacingLeft=3;spacingRight=3;rotatable=0;labelPosition=right;points=[];portConstraint=eastwest;strokeColor=inherit;" vertex="1" parent="1">
          <mxGeometry x="142.87" y="642.1800000000001" width="128" height="8" as="geometry" />
        </mxCell>
        <mxCell id="T37axCYwCcqpS2ppc57C-91" value="" style="edgeStyle=orthogonalEdgeStyle;html=1;verticalAlign=bottom;endArrow=open;endSize=8;strokeColor=#ff0000;rounded=0;entryX=0;entryY=0;entryDx=0;entryDy=0;exitX=0.938;exitY=0.264;exitDx=0;exitDy=0;exitPerimeter=0;" edge="1" parent="1" source="T37axCYwCcqpS2ppc57C-90" target="bX9JsJ9eqzVLUZJ0mOeG-15">
          <mxGeometry relative="1" as="geometry">
            <mxPoint x="351.7750000000001" y="947.796" as="targetPoint" />
            <Array as="points">
              <mxPoint x="263" y="647" />
              <mxPoint x="290" y="647" />
              <mxPoint x="290" y="930" />
              <mxPoint x="418" y="930" />
            </Array>
            <mxPoint x="270.87" y="641.54" as="sourcePoint" />
          </mxGeometry>
        </mxCell>
        <mxCell id="T37axCYwCcqpS2ppc57C-92" value="" style="edgeStyle=orthogonalEdgeStyle;html=1;verticalAlign=bottom;endArrow=open;endSize=8;strokeColor=#ff0000;rounded=0;entryX=0.608;entryY=0.418;entryDx=0;entryDy=0;exitX=0.63;exitY=1.001;exitDx=0;exitDy=0;entryPerimeter=0;exitPerimeter=0;" edge="1" parent="1" source="T37axCYwCcqpS2ppc57C-87" target="T37axCYwCcqpS2ppc57C-90">
          <mxGeometry relative="1" as="geometry">
            <mxPoint x="220.87" y="704.54" as="targetPoint" />
            <Array as="points">
              <mxPoint x="220.87" y="621.54" />
            </Array>
            <mxPoint x="220.87" y="681.54" as="sourcePoint" />
          </mxGeometry>
        </mxCell>
        <mxCell id="T37axCYwCcqpS2ppc57C-93" value="Turn on water pump" style="rounded=1;whiteSpace=wrap;html=1;arcSize=40;fontColor=#000000;fillColor=#ffffc0;strokeColor=#ff0000;" vertex="1" parent="1">
          <mxGeometry x="340" y="975.1400000000001" width="126" height="42.05128205128205" as="geometry" />
        </mxCell>
        <mxCell id="T37axCYwCcqpS2ppc57C-94" value="Processing&amp;nbsp;&lt;div&gt;signal high?&lt;/div&gt;" style="rhombus;whiteSpace=wrap;html=1;fontColor=#000000;fillColor=#ffffc0;strokeColor=#ff0000;" vertex="1" parent="1">
          <mxGeometry x="427.87" y="639.54" width="102" height="62" as="geometry" />
        </mxCell>
        <mxCell id="T37axCYwCcqpS2ppc57C-95" value="yes" style="edgeStyle=orthogonalEdgeStyle;html=1;align=left;verticalAlign=top;endArrow=open;endSize=8;strokeColor=#ff0000;rounded=0;exitX=0.5;exitY=1;exitDx=0;exitDy=0;entryX=1;entryY=0.5;entryDx=0;entryDy=0;" edge="1" parent="1" source="T37axCYwCcqpS2ppc57C-94" target="T37axCYwCcqpS2ppc57C-74">
          <mxGeometry x="-1" relative="1" as="geometry">
            <mxPoint x="500.9900000000001" y="751.5400000000002" as="targetPoint" />
            <Array as="points">
              <mxPoint x="500.87" y="701.54" />
              <mxPoint x="500.87" y="731.54" />
            </Array>
            <mxPoint x="544.12" y="710.8199999999999" as="sourcePoint" />
          </mxGeometry>
        </mxCell>
        <mxCell id="T37axCYwCcqpS2ppc57C-96" value="no" style="edgeStyle=orthogonalEdgeStyle;html=1;align=left;verticalAlign=bottom;endArrow=open;endSize=8;strokeColor=#ff0000;rounded=0;entryX=0;entryY=0.5;entryDx=0;entryDy=0;exitX=0;exitY=0.5;exitDx=0;exitDy=0;" edge="1" parent="1" source="T37axCYwCcqpS2ppc57C-94" target="T37axCYwCcqpS2ppc57C-5">
          <mxGeometry x="-0.7256" y="1" relative="1" as="geometry">
            <mxPoint x="368.87" y="701.54" as="targetPoint" />
            <Array as="points">
              <mxPoint x="340.87" y="670.54" />
              <mxPoint x="340.87" y="192.53999999999996" />
            </Array>
            <mxPoint x="360.87" y="655.54" as="sourcePoint" />
            <mxPoint as="offset" />
          </mxGeometry>
        </mxCell>
        <mxCell id="T37axCYwCcqpS2ppc57C-97" value="" style="edgeStyle=orthogonalEdgeStyle;html=1;verticalAlign=bottom;endArrow=open;endSize=8;strokeColor=#ff0000;rounded=0;entryX=0.299;entryY=0.077;entryDx=0;entryDy=0;entryPerimeter=0;exitX=0.129;exitY=0.466;exitDx=0;exitDy=0;exitPerimeter=0;" edge="1" parent="1" target="T37axCYwCcqpS2ppc57C-93" source="bX9JsJ9eqzVLUZJ0mOeG-15">
          <mxGeometry relative="1" as="geometry">
            <mxPoint x="387.37" y="990.44" as="targetPoint" />
            <Array as="points">
              <mxPoint x="415" y="955" />
              <mxPoint x="378" y="955" />
            </Array>
            <mxPoint x="377.3275" y="951.5360000000001" as="sourcePoint" />
          </mxGeometry>
        </mxCell>
        <mxCell id="T37axCYwCcqpS2ppc57C-98" value="Turn off water pump" style="rounded=1;whiteSpace=wrap;html=1;arcSize=40;fontColor=#000000;fillColor=#ffffc0;strokeColor=#ff0000;" vertex="1" parent="1">
          <mxGeometry x="467.61" y="1031.54" width="126" height="42.05128205128205" as="geometry" />
        </mxCell>
        <mxCell id="T37axCYwCcqpS2ppc57C-99" value="" style="edgeStyle=orthogonalEdgeStyle;html=1;verticalAlign=bottom;endArrow=open;endSize=8;strokeColor=#ff0000;rounded=0;exitX=1;exitY=0.5;exitDx=0;exitDy=0;entryX=0.017;entryY=0.604;entryDx=0;entryDy=0;entryPerimeter=0;" edge="1" parent="1" source="T37axCYwCcqpS2ppc57C-93" target="bX9JsJ9eqzVLUZJ0mOeG-9">
          <mxGeometry relative="1" as="geometry">
            <mxPoint x="490" y="995" as="targetPoint" />
            <Array as="points">
              <mxPoint x="467" y="996" />
            </Array>
            <mxPoint x="477.37" y="1045.44" as="sourcePoint" />
          </mxGeometry>
        </mxCell>
        <mxCell id="T37axCYwCcqpS2ppc57C-100" value="Send low moisture request" style="rounded=1;whiteSpace=wrap;html=1;arcSize=40;fontColor=#000000;fillColor=#ffffc0;strokeColor=#ff0000;" vertex="1" parent="1">
          <mxGeometry x="329.87" y="1031.54" width="126" height="42.05128205128205" as="geometry" />
        </mxCell>
        <mxCell id="T37axCYwCcqpS2ppc57C-101" value="" style="edgeStyle=orthogonalEdgeStyle;html=1;verticalAlign=bottom;endArrow=open;endSize=8;strokeColor=#ff0000;rounded=0;entryX=1;entryY=0.5;entryDx=0;entryDy=0;exitX=0;exitY=0.5;exitDx=0;exitDy=0;" edge="1" parent="1" source="T37axCYwCcqpS2ppc57C-98" target="T37axCYwCcqpS2ppc57C-100">
          <mxGeometry relative="1" as="geometry">
            <mxPoint x="500.11" y="1037.44" as="targetPoint" />
            <Array as="points">
              <mxPoint x="460" y="1053" />
              <mxPoint x="456" y="1053" />
            </Array>
            <mxPoint x="499.11" y="1015.44" as="sourcePoint" />
          </mxGeometry>
        </mxCell>
        <mxCell id="T37axCYwCcqpS2ppc57C-102" value="Time for&amp;nbsp;&lt;div&gt;Fertilizer?&lt;/div&gt;" style="rhombus;whiteSpace=wrap;html=1;fontColor=#000000;fillColor=#ffffc0;strokeColor=#ff0000;" vertex="1" parent="1">
          <mxGeometry x="977.62" y="130.8994871794871" width="94.5" height="63.07692307692308" as="geometry" />
        </mxCell>
        <mxCell id="T37axCYwCcqpS2ppc57C-103" value="no" style="edgeStyle=orthogonalEdgeStyle;html=1;align=left;verticalAlign=bottom;endArrow=open;endSize=8;strokeColor=#ff0000;rounded=0;exitX=1;exitY=0.5;exitDx=0;exitDy=0;entryX=1;entryY=0.25;entryDx=0;entryDy=0;" edge="1" parent="1" source="T37axCYwCcqpS2ppc57C-102" target="T37axCYwCcqpS2ppc57C-5">
          <mxGeometry x="-1" relative="1" as="geometry">
            <mxPoint x="1087.87" y="95.12974358974361" as="targetPoint" />
            <Array as="points">
              <mxPoint x="1098.62" y="162.53999999999996" />
              <mxPoint x="1098.62" y="21.539999999999964" />
              <mxPoint x="577.62" y="21.539999999999964" />
              <mxPoint x="577.62" y="182.53999999999996" />
            </Array>
          </mxGeometry>
        </mxCell>
        <mxCell id="T37axCYwCcqpS2ppc57C-104" value="yes" style="edgeStyle=orthogonalEdgeStyle;html=1;align=left;verticalAlign=top;endArrow=open;endSize=8;strokeColor=#ff0000;rounded=0;exitX=0.5;exitY=1;exitDx=0;exitDy=0;entryX=0.5;entryY=0;entryDx=0;entryDy=0;" edge="1" parent="1" source="T37axCYwCcqpS2ppc57C-102" target="T37axCYwCcqpS2ppc57C-105">
          <mxGeometry x="-1" relative="1" as="geometry">
            <mxPoint x="1025.62" y="233.53999999999996" as="targetPoint" />
            <Array as="points" />
          </mxGeometry>
        </mxCell>
        <mxCell id="T37axCYwCcqpS2ppc57C-105" value="Move servo motor" style="rounded=1;whiteSpace=wrap;html=1;arcSize=40;fontColor=#000000;fillColor=#ffffc0;strokeColor=#ff0000;" vertex="1" parent="1">
          <mxGeometry x="964.87" y="223.53999999999996" width="120" height="40" as="geometry" />
        </mxCell>
        <mxCell id="T37axCYwCcqpS2ppc57C-106" value="Return servo motor to original positions" style="rounded=1;whiteSpace=wrap;html=1;arcSize=40;fontColor=#000000;fillColor=#ffffc0;strokeColor=#ff0000;" vertex="1" parent="1">
          <mxGeometry x="964.87" y="287.77" width="120" height="40" as="geometry" />
        </mxCell>
        <mxCell id="T37axCYwCcqpS2ppc57C-107" value="Turn on blending motor" style="rounded=1;whiteSpace=wrap;html=1;arcSize=40;fontColor=#000000;fillColor=#ffffc0;strokeColor=#ff0000;" vertex="1" parent="1">
          <mxGeometry x="964.87" y="352.53999999999996" width="120" height="40" as="geometry" />
        </mxCell>
        <mxCell id="T37axCYwCcqpS2ppc57C-108" value="Run period of time" style="rounded=1;whiteSpace=wrap;html=1;arcSize=40;fontColor=#000000;fillColor=#ffffc0;strokeColor=#ff0000;" vertex="1" parent="1">
          <mxGeometry x="967.62" y="414.53999999999996" width="120" height="40" as="geometry" />
        </mxCell>
        <mxCell id="T37axCYwCcqpS2ppc57C-109" value="Turn off blending motor" style="rounded=1;whiteSpace=wrap;html=1;arcSize=40;fontColor=#000000;fillColor=#ffffc0;strokeColor=#ff0000;" vertex="1" parent="1">
          <mxGeometry x="967.62" y="473.53999999999996" width="120" height="40" as="geometry" />
        </mxCell>
        <mxCell id="T37axCYwCcqpS2ppc57C-110" value="" style="edgeStyle=orthogonalEdgeStyle;html=1;verticalAlign=bottom;endArrow=open;endSize=8;strokeColor=#ff0000;rounded=0;entryX=0.5;entryY=0;entryDx=0;entryDy=0;exitX=0.5;exitY=1;exitDx=0;exitDy=0;" edge="1" parent="1" source="T37axCYwCcqpS2ppc57C-105" target="T37axCYwCcqpS2ppc57C-106">
          <mxGeometry relative="1" as="geometry">
            <mxPoint x="1117.62" y="255.53999999999996" as="targetPoint" />
            <Array as="points">
              <mxPoint x="1024.62" y="283.53999999999996" />
              <mxPoint x="1024.62" y="283.53999999999996" />
            </Array>
            <mxPoint x="1117.62" y="233.53999999999996" as="sourcePoint" />
          </mxGeometry>
        </mxCell>
        <mxCell id="T37axCYwCcqpS2ppc57C-111" value="" style="edgeStyle=orthogonalEdgeStyle;html=1;verticalAlign=bottom;endArrow=open;endSize=8;strokeColor=#ff0000;rounded=0;entryX=0.5;entryY=0;entryDx=0;entryDy=0;exitX=0.517;exitY=0.992;exitDx=0;exitDy=0;exitPerimeter=0;" edge="1" parent="1" source="T37axCYwCcqpS2ppc57C-106" target="T37axCYwCcqpS2ppc57C-107">
          <mxGeometry relative="1" as="geometry">
            <mxPoint x="1027.62" y="355.53999999999996" as="targetPoint" />
            <Array as="points">
              <mxPoint x="1027.62" y="327.53999999999996" />
              <mxPoint x="1024.62" y="327.53999999999996" />
            </Array>
            <mxPoint x="1027.62" y="333.53999999999996" as="sourcePoint" />
          </mxGeometry>
        </mxCell>
        <mxCell id="T37axCYwCcqpS2ppc57C-112" value="" style="edgeStyle=orthogonalEdgeStyle;html=1;verticalAlign=bottom;endArrow=open;endSize=8;strokeColor=#ff0000;rounded=0;entryX=0.473;entryY=0.007;entryDx=0;entryDy=0;exitX=0.496;exitY=1.01;exitDx=0;exitDy=0;exitPerimeter=0;entryPerimeter=0;" edge="1" parent="1" source="T37axCYwCcqpS2ppc57C-107" target="T37axCYwCcqpS2ppc57C-108">
          <mxGeometry relative="1" as="geometry">
            <mxPoint x="1017.62" y="415.53999999999996" as="targetPoint" />
            <Array as="points" />
            <mxPoint x="1017.62" y="393.53999999999996" as="sourcePoint" />
          </mxGeometry>
        </mxCell>
        <mxCell id="T37axCYwCcqpS2ppc57C-113" value="" style="edgeStyle=orthogonalEdgeStyle;html=1;verticalAlign=bottom;endArrow=open;endSize=8;strokeColor=#ff0000;rounded=0;entryX=0.479;entryY=0.009;entryDx=0;entryDy=0;exitX=0.416;exitY=1.007;exitDx=0;exitDy=0;exitPerimeter=0;entryPerimeter=0;" edge="1" parent="1" target="T37axCYwCcqpS2ppc57C-109">
          <mxGeometry relative="1" as="geometry">
            <mxPoint x="1024.83" y="476.53999999999996" as="targetPoint" />
            <Array as="points">
              <mxPoint x="1024.62" y="464.53999999999996" />
              <mxPoint x="1025.62" y="464.53999999999996" />
            </Array>
            <mxPoint x="1024.83" y="454.53999999999996" as="sourcePoint" />
          </mxGeometry>
        </mxCell>
        <mxCell id="T37axCYwCcqpS2ppc57C-114" value="" style="endArrow=none;dashed=1;html=1;dashPattern=1 3;strokeWidth=2;rounded=0;" edge="1" parent="1">
          <mxGeometry width="50" height="50" relative="1" as="geometry">
            <mxPoint x="897.62" y="1101.54" as="sourcePoint" />
            <mxPoint x="887.62" y="21.539999999999964" as="targetPoint" />
          </mxGeometry>
        </mxCell>
        <mxCell id="T37axCYwCcqpS2ppc57C-115" value="" style="endArrow=none;dashed=1;html=1;dashPattern=1 3;strokeWidth=2;rounded=0;" edge="1" parent="1">
          <mxGeometry width="50" height="50" relative="1" as="geometry">
            <mxPoint x="1180" y="560" as="sourcePoint" />
            <mxPoint x="1167.62" y="21.539999999999964" as="targetPoint" />
          </mxGeometry>
        </mxCell>
        <mxCell id="T37axCYwCcqpS2ppc57C-116" value="Fertilizer System" style="text;html=1;whiteSpace=wrap;strokeColor=none;fillColor=none;align=center;verticalAlign=middle;rounded=0;" vertex="1" parent="1">
          <mxGeometry x="917.62" y="41.539999999999964" width="120" height="30" as="geometry" />
        </mxCell>
        <mxCell id="T37axCYwCcqpS2ppc57C-117" value="no" style="edgeStyle=orthogonalEdgeStyle;html=1;align=left;verticalAlign=bottom;endArrow=open;endSize=8;strokeColor=#ff0000;rounded=0;exitX=1;exitY=0.5;exitDx=0;exitDy=0;entryX=0.042;entryY=0.139;entryDx=0;entryDy=0;entryPerimeter=0;" edge="1" parent="1" source="T37axCYwCcqpS2ppc57C-25" target="T37axCYwCcqpS2ppc57C-29">
          <mxGeometry x="-0.339" y="5" relative="1" as="geometry">
            <mxPoint x="717.62" y="359.53999999999996" as="targetPoint" />
            <Array as="points" />
            <mxPoint x="717.62" y="311.53999999999996" as="sourcePoint" />
            <mxPoint y="-1" as="offset" />
          </mxGeometry>
        </mxCell>
        <mxCell id="T37axCYwCcqpS2ppc57C-118" value="" style="edgeStyle=orthogonalEdgeStyle;html=1;align=left;verticalAlign=bottom;endArrow=open;endSize=8;strokeColor=#ff0000;rounded=0;exitX=0.024;exitY=0.51;exitDx=0;exitDy=0;exitPerimeter=0;entryX=0.811;entryY=0.706;entryDx=0;entryDy=0;entryPerimeter=0;" edge="1" parent="1" source="bX9JsJ9eqzVLUZJ0mOeG-16" target="T37axCYwCcqpS2ppc57C-45">
          <mxGeometry x="-1" y="-150" relative="1" as="geometry">
            <mxPoint x="377.37" y="811.54" as="targetPoint" />
            <Array as="points">
              <mxPoint x="389" y="782" />
              <mxPoint x="389" y="766" />
              <mxPoint x="300" y="766" />
              <mxPoint x="300" y="85" />
            </Array>
            <mxPoint x="389.19000000000005" y="768.364" as="sourcePoint" />
            <mxPoint x="-2" y="22" as="offset" />
          </mxGeometry>
        </mxCell>
        <mxCell id="T37axCYwCcqpS2ppc57C-119" value="" style="edgeStyle=orthogonalEdgeStyle;html=1;verticalAlign=bottom;endArrow=open;endSize=8;strokeColor=#ff0000;rounded=0;entryX=0.452;entryY=1.027;entryDx=0;entryDy=0;exitX=0.884;exitY=0.349;exitDx=0;exitDy=0;exitPerimeter=0;entryPerimeter=0;" edge="1" parent="1" source="T37axCYwCcqpS2ppc57C-77" target="bX9JsJ9eqzVLUZJ0mOeG-6">
          <mxGeometry relative="1" as="geometry">
            <mxPoint x="605.37" y="799.54" as="targetPoint" />
            <Array as="points">
              <mxPoint x="530" y="790" />
              <mxPoint x="555" y="790" />
              <mxPoint x="555" y="771" />
            </Array>
            <mxPoint x="539.37" y="781.54" as="sourcePoint" />
          </mxGeometry>
        </mxCell>
        <mxCell id="T37axCYwCcqpS2ppc57C-120" value="no" style="edgeLabel;html=1;align=center;verticalAlign=middle;resizable=0;points=[];" connectable="0" vertex="1" parent="T37axCYwCcqpS2ppc57C-119">
          <mxGeometry x="-0.0179" relative="1" as="geometry">
            <mxPoint x="-9" y="-8" as="offset" />
          </mxGeometry>
        </mxCell>
        <mxCell id="T37axCYwCcqpS2ppc57C-121" value="" style="edgeStyle=orthogonalEdgeStyle;html=1;verticalAlign=bottom;endArrow=open;endSize=8;strokeColor=#ff0000;rounded=0;exitX=1.006;exitY=0.581;exitDx=0;exitDy=0;exitPerimeter=0;" edge="1" parent="1">
          <mxGeometry relative="1" as="geometry">
            <mxPoint x="1096.9" y="161.53999999999996" as="targetPoint" />
            <Array as="points">
              <mxPoint x="1096.6100000000001" y="496.53999999999996" />
              <mxPoint x="1096.6100000000001" y="451.53999999999996" />
            </Array>
            <mxPoint x="1087.62" y="496.78" as="sourcePoint" />
          </mxGeometry>
        </mxCell>
        <mxCell id="T37axCYwCcqpS2ppc57C-122" value="" style="ellipse;html=1;shape=startState;fillColor=#000000;strokeColor=#ff0000;" vertex="1" parent="1">
          <mxGeometry x="635.87" y="621.54" width="30" height="30" as="geometry" />
        </mxCell>
        <mxCell id="T37axCYwCcqpS2ppc57C-123" value="Present options to user" style="rounded=1;whiteSpace=wrap;html=1;arcSize=40;fontColor=#000000;fillColor=#ffffc0;strokeColor=#ff0000;" vertex="1" parent="1">
          <mxGeometry x="615.87" y="671.54" width="120" height="40" as="geometry" />
        </mxCell>
        <mxCell id="T37axCYwCcqpS2ppc57C-124" value="new Option Choosen" style="rhombus;whiteSpace=wrap;html=1;fontColor=#000000;fillColor=#ffffc0;strokeColor=#ff0000;" vertex="1" parent="1">
          <mxGeometry x="621.37" y="734" width="94.5" height="63.07692307692308" as="geometry" />
        </mxCell>
        <mxCell id="T37axCYwCcqpS2ppc57C-125" value="" style="edgeStyle=orthogonalEdgeStyle;html=1;verticalAlign=bottom;endArrow=open;endSize=8;strokeColor=#ff0000;rounded=0;exitX=0.436;exitY=1.047;exitDx=0;exitDy=0;exitPerimeter=0;entryX=0.5;entryY=0;entryDx=0;entryDy=0;" edge="1" parent="1" source="T37axCYwCcqpS2ppc57C-123" target="T37axCYwCcqpS2ppc57C-124">
          <mxGeometry relative="1" as="geometry">
            <mxPoint x="823.08" y="819.46" as="targetPoint" />
            <Array as="points">
              <mxPoint x="668" y="730" />
              <mxPoint x="669" y="730" />
            </Array>
            <mxPoint x="783.08" y="780.46" as="sourcePoint" />
          </mxGeometry>
        </mxCell>
        <mxCell id="T37axCYwCcqpS2ppc57C-126" value="yes" style="edgeStyle=orthogonalEdgeStyle;html=1;align=left;verticalAlign=top;endArrow=open;endSize=8;strokeColor=#ff0000;rounded=0;exitX=0.5;exitY=1;exitDx=0;exitDy=0;" edge="1" parent="1" source="T37axCYwCcqpS2ppc57C-124" target="T37axCYwCcqpS2ppc57C-127">
          <mxGeometry x="-0.902" y="7" relative="1" as="geometry">
            <mxPoint x="669" y="840" as="targetPoint" />
            <Array as="points">
              <mxPoint x="670" y="797" />
            </Array>
            <mxPoint x="680.4999999999999" y="840" as="sourcePoint" />
            <mxPoint as="offset" />
          </mxGeometry>
        </mxCell>
        <mxCell id="T37axCYwCcqpS2ppc57C-127" value="Run System Interrupt" style="rounded=1;whiteSpace=wrap;html=1;arcSize=40;fontColor=#000000;fillColor=#ffffc0;strokeColor=#ff0000;" vertex="1" parent="1">
          <mxGeometry x="621.37" y="821.54" width="120" height="40" as="geometry" />
        </mxCell>
        <mxCell id="T37axCYwCcqpS2ppc57C-128" value="" style="edgeStyle=orthogonalEdgeStyle;html=1;verticalAlign=bottom;endArrow=open;endSize=8;strokeColor=#ff0000;rounded=0;exitX=0.416;exitY=1.028;exitDx=0;exitDy=0;exitPerimeter=0;" edge="1" parent="1" source="T37axCYwCcqpS2ppc57C-127" target="T37axCYwCcqpS2ppc57C-129">
          <mxGeometry relative="1" as="geometry">
            <mxPoint x="670" y="900" as="targetPoint" />
            <Array as="points">
              <mxPoint x="670" y="863" />
            </Array>
            <mxPoint x="660" y="880" as="sourcePoint" />
          </mxGeometry>
        </mxCell>
        <mxCell id="T37axCYwCcqpS2ppc57C-129" value="Take User Input" style="rounded=1;whiteSpace=wrap;html=1;arcSize=40;fontColor=#000000;fillColor=#ffffc0;strokeColor=#ff0000;" vertex="1" parent="1">
          <mxGeometry x="615.87" y="879.11" width="120" height="40" as="geometry" />
        </mxCell>
        <mxCell id="T37axCYwCcqpS2ppc57C-130" value="Pass update information through UART" style="rounded=1;whiteSpace=wrap;html=1;arcSize=40;fontColor=#000000;fillColor=#ffffc0;strokeColor=#ff0000;" vertex="1" parent="1">
          <mxGeometry x="615.87" y="943.54" width="120" height="40" as="geometry" />
        </mxCell>
        <mxCell id="T37axCYwCcqpS2ppc57C-131" value="" style="edgeStyle=orthogonalEdgeStyle;html=1;verticalAlign=bottom;endArrow=open;endSize=8;strokeColor=#ff0000;rounded=0;exitX=0.451;exitY=1.006;exitDx=0;exitDy=0;exitPerimeter=0;entryX=0.457;entryY=0.012;entryDx=0;entryDy=0;entryPerimeter=0;" edge="1" parent="1" source="T37axCYwCcqpS2ppc57C-129" target="T37axCYwCcqpS2ppc57C-130">
          <mxGeometry relative="1" as="geometry">
            <mxPoint x="740" y="936" as="targetPoint" />
            <Array as="points">
              <mxPoint x="671" y="919" />
            </Array>
            <mxPoint x="741" y="920" as="sourcePoint" />
          </mxGeometry>
        </mxCell>
        <mxCell id="T37axCYwCcqpS2ppc57C-132" value="" style="edgeStyle=orthogonalEdgeStyle;html=1;verticalAlign=bottom;endArrow=open;endSize=8;strokeColor=#ff0000;rounded=0;exitX=0.538;exitY=0.893;exitDx=0;exitDy=0;exitPerimeter=0;entryX=0.309;entryY=0.037;entryDx=0;entryDy=0;entryPerimeter=0;" edge="1" parent="1" source="T37axCYwCcqpS2ppc57C-122" target="T37axCYwCcqpS2ppc57C-123">
          <mxGeometry relative="1" as="geometry">
            <mxPoint x="671" y="671" as="targetPoint" />
            <Array as="points">
              <mxPoint x="652" y="673" />
            </Array>
            <mxPoint x="670" y="650" as="sourcePoint" />
          </mxGeometry>
        </mxCell>
        <mxCell id="T37axCYwCcqpS2ppc57C-133" value="End System Interrupt" style="rounded=1;whiteSpace=wrap;html=1;arcSize=40;fontColor=#000000;fillColor=#ffffc0;strokeColor=#ff0000;" vertex="1" parent="1">
          <mxGeometry x="615.87" y="1007.19" width="120" height="40" as="geometry" />
        </mxCell>
        <mxCell id="T37axCYwCcqpS2ppc57C-134" value="" style="edgeStyle=orthogonalEdgeStyle;html=1;verticalAlign=bottom;endArrow=open;endSize=8;strokeColor=#ff0000;rounded=0;exitX=0.437;exitY=1.005;exitDx=0;exitDy=0;exitPerimeter=0;entryX=0.433;entryY=0.013;entryDx=0;entryDy=0;entryPerimeter=0;" edge="1" parent="1" source="T37axCYwCcqpS2ppc57C-130" target="T37axCYwCcqpS2ppc57C-133">
          <mxGeometry relative="1" as="geometry">
            <mxPoint x="741" y="1015" as="targetPoint" />
            <Array as="points">
              <mxPoint x="668" y="990" />
              <mxPoint x="668" y="990" />
            </Array>
            <mxPoint x="740" y="990" as="sourcePoint" />
          </mxGeometry>
        </mxCell>
        <mxCell id="T37axCYwCcqpS2ppc57C-135" value="" style="edgeStyle=orthogonalEdgeStyle;html=1;verticalAlign=bottom;endArrow=open;endSize=8;strokeColor=#ff0000;rounded=0;exitX=1;exitY=0.5;exitDx=0;exitDy=0;entryX=1.016;entryY=0.617;entryDx=0;entryDy=0;entryPerimeter=0;" edge="1" parent="1" source="T37axCYwCcqpS2ppc57C-133" target="T37axCYwCcqpS2ppc57C-123">
          <mxGeometry relative="1" as="geometry">
            <mxPoint x="760" y="994" as="targetPoint" />
            <Array as="points">
              <mxPoint x="760" y="1027" />
              <mxPoint x="760" y="696" />
            </Array>
            <mxPoint x="760" y="970" as="sourcePoint" />
          </mxGeometry>
        </mxCell>
        <mxCell id="T37axCYwCcqpS2ppc57C-136" value="" style="edgeStyle=orthogonalEdgeStyle;html=1;verticalAlign=bottom;endArrow=open;endSize=8;strokeColor=#ff0000;rounded=0;entryX=0.829;entryY=0.997;entryDx=0;entryDy=0;exitX=0.99;exitY=0.493;exitDx=0;exitDy=0;exitPerimeter=0;entryPerimeter=0;" edge="1" parent="1" source="T37axCYwCcqpS2ppc57C-124" target="T37axCYwCcqpS2ppc57C-123">
          <mxGeometry relative="1" as="geometry">
            <mxPoint x="650.38" y="788.46" as="targetPoint" />
            <Array as="points">
              <mxPoint x="715" y="760" />
              <mxPoint x="715" y="760" />
              <mxPoint x="715" y="711" />
            </Array>
            <mxPoint x="689.38" y="809.46" as="sourcePoint" />
          </mxGeometry>
        </mxCell>
        <mxCell id="T37axCYwCcqpS2ppc57C-137" value="no" style="edgeLabel;html=1;align=center;verticalAlign=middle;resizable=0;points=[];" connectable="0" vertex="1" parent="T37axCYwCcqpS2ppc57C-136">
          <mxGeometry x="-0.0179" relative="1" as="geometry">
            <mxPoint x="15" y="-4" as="offset" />
          </mxGeometry>
        </mxCell>
        <mxCell id="bX9JsJ9eqzVLUZJ0mOeG-2" value="" style="rhombus;whiteSpace=wrap;html=1;fontColor=#000000;fillColor=#ffffc0;strokeColor=#ff0000;" vertex="1" parent="1">
          <mxGeometry x="764" y="103.98" width="56" height="46.02" as="geometry" />
        </mxCell>
        <mxCell id="bX9JsJ9eqzVLUZJ0mOeG-3" value="" style="edgeStyle=orthogonalEdgeStyle;html=1;verticalAlign=bottom;endArrow=open;endSize=8;strokeColor=#ff0000;rounded=0;entryX=0.5;entryY=0;entryDx=0;entryDy=0;exitX=0.5;exitY=0;exitDx=0;exitDy=0;" edge="1" parent="1" source="bX9JsJ9eqzVLUZJ0mOeG-2" target="T37axCYwCcqpS2ppc57C-14">
          <mxGeometry relative="1" as="geometry">
            <mxPoint x="807" y="238" as="targetPoint" />
            <Array as="points">
              <mxPoint x="807" y="104" />
              <mxPoint x="807" y="52" />
            </Array>
            <mxPoint x="800" y="160" as="sourcePoint" />
          </mxGeometry>
        </mxCell>
        <mxCell id="bX9JsJ9eqzVLUZJ0mOeG-4" value="" style="rhombus;whiteSpace=wrap;html=1;fontColor=#000000;fillColor=#ffffc0;strokeColor=#ff0000;" vertex="1" parent="1">
          <mxGeometry x="380" y="500" width="56" height="46.02" as="geometry" />
        </mxCell>
        <mxCell id="bX9JsJ9eqzVLUZJ0mOeG-5" value="" style="rhombus;whiteSpace=wrap;html=1;fontColor=#000000;fillColor=#ffffc0;strokeColor=#ff0000;" vertex="1" parent="1">
          <mxGeometry x="524.62" y="327.77" width="56" height="46.02" as="geometry" />
        </mxCell>
        <mxCell id="bX9JsJ9eqzVLUZJ0mOeG-6" value="" style="rhombus;whiteSpace=wrap;html=1;fontColor=#000000;fillColor=#ffffc0;strokeColor=#ff0000;" vertex="1" parent="1">
          <mxGeometry x="529.87" y="723.52" width="56" height="46.02" as="geometry" />
        </mxCell>
        <mxCell id="bX9JsJ9eqzVLUZJ0mOeG-7" value="" style="rhombus;whiteSpace=wrap;html=1;fontColor=#000000;fillColor=#ffffc0;strokeColor=#ff0000;" vertex="1" parent="1">
          <mxGeometry x="354.87" y="879.11" width="56" height="46.02" as="geometry" />
        </mxCell>
        <mxCell id="bX9JsJ9eqzVLUZJ0mOeG-8" value="" style="edgeStyle=orthogonalEdgeStyle;html=1;align=left;verticalAlign=bottom;endArrow=open;endSize=8;strokeColor=#ff0000;rounded=0;entryX=0;entryY=0.25;entryDx=0;entryDy=0;exitX=0;exitY=0.5;exitDx=0;exitDy=0;" edge="1" parent="1" source="T37axCYwCcqpS2ppc57C-100" target="T37axCYwCcqpS2ppc57C-5">
          <mxGeometry x="-0.7256" y="1" relative="1" as="geometry">
            <mxPoint x="400.13" y="820.46" as="targetPoint" />
            <Array as="points">
              <mxPoint x="330" y="180" />
              <mxPoint x="361" y="180" />
            </Array>
            <mxPoint x="467.13" y="1298.46" as="sourcePoint" />
            <mxPoint as="offset" />
          </mxGeometry>
        </mxCell>
        <mxCell id="bX9JsJ9eqzVLUZJ0mOeG-9" value="Wait Determined water cycle" style="rounded=1;whiteSpace=wrap;html=1;arcSize=40;fontColor=#000000;fillColor=#ffffc0;strokeColor=#ff0000;" vertex="1" parent="1">
          <mxGeometry x="480.87" y="970.14" width="89.13" height="42.05" as="geometry" />
        </mxCell>
        <mxCell id="bX9JsJ9eqzVLUZJ0mOeG-10" value="" style="edgeStyle=orthogonalEdgeStyle;html=1;verticalAlign=bottom;endArrow=open;endSize=8;strokeColor=#ff0000;rounded=0;exitX=0.5;exitY=1;exitDx=0;exitDy=0;" edge="1" parent="1" source="bX9JsJ9eqzVLUZJ0mOeG-9">
          <mxGeometry relative="1" as="geometry">
            <mxPoint x="530" y="1030" as="targetPoint" />
            <Array as="points">
              <mxPoint x="531" y="1012" />
              <mxPoint x="531" y="1030" />
            </Array>
            <mxPoint x="490" y="1130" as="sourcePoint" />
          </mxGeometry>
        </mxCell>
        <mxCell id="bX9JsJ9eqzVLUZJ0mOeG-11" value="" style="edgeStyle=orthogonalEdgeStyle;html=1;verticalAlign=bottom;endArrow=open;endSize=8;strokeColor=#ff0000;rounded=0;exitX=0.5;exitY=0;exitDx=0;exitDy=0;entryX=0;entryY=0;entryDx=0;entryDy=0;" edge="1" parent="1" source="bX9JsJ9eqzVLUZJ0mOeG-7" target="T37axCYwCcqpS2ppc57C-79">
          <mxGeometry relative="1" as="geometry">
            <mxPoint x="423.13" y="885" as="targetPoint" />
            <Array as="points">
              <mxPoint x="383" y="860" />
              <mxPoint x="465" y="860" />
            </Array>
            <mxPoint x="390.13" y="850" as="sourcePoint" />
          </mxGeometry>
        </mxCell>
        <mxCell id="bX9JsJ9eqzVLUZJ0mOeG-12" value="" style="edgeStyle=orthogonalEdgeStyle;html=1;verticalAlign=bottom;endArrow=open;endSize=8;strokeColor=#ff0000;rounded=0;exitX=-0.024;exitY=0.504;exitDx=0;exitDy=0;entryX=0.5;entryY=0;entryDx=0;entryDy=0;exitPerimeter=0;" edge="1" parent="1" source="bX9JsJ9eqzVLUZJ0mOeG-6" target="T37axCYwCcqpS2ppc57C-77">
          <mxGeometry relative="1" as="geometry">
            <mxPoint x="543.13" y="785" as="targetPoint" />
            <Array as="points">
              <mxPoint x="490" y="747" />
              <mxPoint x="490" y="760" />
              <mxPoint x="491" y="760" />
            </Array>
            <mxPoint x="510.13" y="750" as="sourcePoint" />
          </mxGeometry>
        </mxCell>
        <mxCell id="bX9JsJ9eqzVLUZJ0mOeG-13" value="" style="edgeStyle=orthogonalEdgeStyle;html=1;verticalAlign=bottom;endArrow=open;endSize=8;strokeColor=#ff0000;rounded=0;exitX=0.5;exitY=0;exitDx=0;exitDy=0;entryX=0;entryY=0;entryDx=0;entryDy=0;" edge="1" parent="1" source="bX9JsJ9eqzVLUZJ0mOeG-4" target="T37axCYwCcqpS2ppc57C-22">
          <mxGeometry relative="1" as="geometry">
            <mxPoint x="453.13" y="515" as="targetPoint" />
            <Array as="points">
              <mxPoint x="408" y="470" />
              <mxPoint x="481" y="470" />
            </Array>
            <mxPoint x="420.13" y="480" as="sourcePoint" />
          </mxGeometry>
        </mxCell>
        <mxCell id="bX9JsJ9eqzVLUZJ0mOeG-14" value="" style="edgeStyle=orthogonalEdgeStyle;html=1;verticalAlign=bottom;endArrow=open;endSize=8;strokeColor=#ff0000;rounded=0;exitX=0;exitY=0.5;exitDx=0;exitDy=0;entryX=0.5;entryY=0;entryDx=0;entryDy=0;" edge="1" parent="1" source="bX9JsJ9eqzVLUZJ0mOeG-5" target="T37axCYwCcqpS2ppc57C-18">
          <mxGeometry relative="1" as="geometry">
            <mxPoint x="547.14" y="392.54" as="targetPoint" />
            <Array as="points">
              <mxPoint x="509" y="351" />
              <mxPoint x="514" y="351" />
              <mxPoint x="507" y="351" />
            </Array>
            <mxPoint x="508.63" y="338.32" as="sourcePoint" />
          </mxGeometry>
        </mxCell>
        <mxCell id="bX9JsJ9eqzVLUZJ0mOeG-15" value="" style="rhombus;whiteSpace=wrap;html=1;fontColor=#000000;fillColor=#ffffc0;strokeColor=#ff0000;" vertex="1" parent="1">
          <mxGeometry x="410.87" y="940" width="30.58" height="25.13" as="geometry" />
        </mxCell>
        <mxCell id="bX9JsJ9eqzVLUZJ0mOeG-16" value="" style="rhombus;whiteSpace=wrap;html=1;fontColor=#000000;fillColor=#ffffc0;strokeColor=#ff0000;" vertex="1" parent="1">
          <mxGeometry x="393.33" y="769.54" width="30.58" height="25.13" as="geometry" />
        </mxCell>
        <mxCell id="bX9JsJ9eqzVLUZJ0mOeG-18" value="" style="rhombus;whiteSpace=wrap;html=1;fontColor=#000000;fillColor=#ffffc0;strokeColor=#ff0000;" vertex="1" parent="1">
          <mxGeometry x="491.58" y="556.41" width="30.58" height="25.13" as="geometry" />
        </mxCell>
        <mxCell id="bX9JsJ9eqzVLUZJ0mOeG-19" value="" style="rhombus;whiteSpace=wrap;html=1;fontColor=#000000;fillColor=#ffffc0;strokeColor=#ff0000;" vertex="1" parent="1">
          <mxGeometry x="409.33" y="373.79" width="30.58" height="25.13" as="geometry" />
        </mxCell>
      </root>
    </mxGraphModel>
  </diagram>
</mxfile>
